<svg width="148" height="39" viewBox="0 0 148 39" fill="none" xmlns="http://www.w3.org/2000/svg">
<path d="M49.699 14.6399C49.5427 13.0329 48.9513 11.8276 47.9245 11.0241C46.8978 10.1982 45.6367 9.78528 44.1412 9.78528C43.6279 9.78528 43.081 9.85224 42.5007 9.98616C41.9427 10.0978 41.4182 10.2875 40.9271 10.5553C40.4584 10.8232 40.0678 11.1691 39.7553 11.5932C39.4428 12.0173 39.2866 12.5307 39.2866 13.1333C39.2866 13.6913 39.3982 14.1712 39.6214 14.573C39.8446 14.9747 40.1571 15.3319 40.5588 15.6443C40.9606 15.9345 41.4182 16.18 41.9315 16.3809C42.4672 16.5818 43.0364 16.7604 43.639 16.9166L46.0831 17.5527C47.0429 17.7982 47.9915 18.0884 48.9289 18.4232C49.8887 18.758 50.7369 19.1821 51.4734 19.6955C52.21 20.2088 52.8015 20.845 53.2479 21.6039C53.7166 22.3627 53.951 23.289 53.951 24.3827C53.951 25.4987 53.6943 26.4808 53.1809 27.329C52.6676 28.1548 51.9868 28.8468 51.1386 29.4048C50.3128 29.9628 49.353 30.3757 48.2593 30.6436C47.188 30.9114 46.0943 31.0453 44.9782 31.0453C42.2775 31.0453 40.0566 30.3757 38.3157 29.0365C36.597 27.6973 35.5479 25.8001 35.1685 23.3448H38.9853C39.0522 24.1037 39.2085 24.8291 39.454 25.5211C39.7218 26.213 40.1013 26.8268 40.5923 27.3625C41.0834 27.8982 41.6972 28.3334 42.4337 28.6682C43.1703 28.9807 44.052 29.1369 45.0787 29.1369C45.6813 29.1369 46.2951 29.07 46.9201 28.9361C47.5674 28.7798 48.1477 28.5455 48.6611 28.233C49.1968 27.8982 49.632 27.4852 49.9668 26.9942C50.3016 26.4808 50.469 25.8559 50.469 25.1193C50.469 24.472 50.3239 23.9252 50.0338 23.4788C49.7436 23.0323 49.353 22.6529 48.862 22.3404C48.3709 22.0056 47.8018 21.7378 47.1545 21.5369C46.5072 21.3137 45.8264 21.1128 45.1122 20.9342L42.2998 20.1977C41.474 19.9745 40.6704 19.6955 39.8892 19.3607C39.108 19.0035 38.4161 18.5683 37.8134 18.0549C37.2108 17.5192 36.7309 16.9054 36.3738 16.2135C36.0167 15.4993 35.8381 14.6734 35.8381 13.736C35.8381 12.7092 36.0836 11.8276 36.5747 11.091C37.0657 10.3544 37.713 9.7518 38.5165 9.28307C39.3424 8.79203 40.2687 8.4349 41.2954 8.2117C42.3445 7.9885 43.4158 7.8769 44.5095 7.8769C45.7595 7.8769 46.8978 8.05546 47.9245 8.41258C48.9513 8.76971 49.8441 9.26075 50.603 9.88572C51.3618 10.4884 51.9756 11.2026 52.4444 12.0285C52.9354 12.8543 53.2591 13.7248 53.4153 14.6399H49.699ZM63.4204 29.2374C64.4472 29.2374 65.3065 28.9137 65.9984 28.2664C66.7127 27.5968 67.1256 26.6705 67.2372 25.4876H70.7192C70.5406 26.4473 70.217 27.2732 69.7482 27.9651C69.2795 28.6571 68.6992 29.2374 68.0073 29.7061C67.3376 30.1525 66.5899 30.4873 65.7641 30.7105C64.9382 30.9337 64.0789 31.0453 63.1861 31.0453C62.0031 31.0453 60.9094 30.8444 59.905 30.4427C58.9229 30.0409 58.0747 29.4717 57.3605 28.7352C56.6462 27.9986 56.0882 27.1058 55.6865 26.0567C55.2847 25.0077 55.0838 23.8247 55.0838 22.5078C55.0838 21.2802 55.2624 20.153 55.6195 19.1263C55.999 18.0773 56.5346 17.1733 57.2266 16.4144C57.9185 15.6555 58.7555 15.064 59.7376 14.6399C60.742 14.1935 61.8692 13.9703 63.1191 13.9703C64.2128 13.9703 65.2284 14.1489 66.1658 14.506C67.1256 14.8408 67.9515 15.3653 68.6434 16.0796C69.3353 16.7938 69.871 17.6978 70.2504 18.7915C70.6299 19.8852 70.8084 21.1798 70.7861 22.6752H58.8336C58.856 24.684 59.2577 26.2799 60.0389 27.4629C60.8201 28.6459 61.9473 29.2374 63.4204 29.2374ZM63.0856 15.7113C62.5053 15.7113 61.9585 15.8117 61.4451 16.0126C60.9541 16.1912 60.5188 16.4925 60.1394 16.9166C59.7599 17.3184 59.4474 17.8429 59.2019 18.4902C58.9787 19.1375 58.856 19.9187 58.8336 20.8338H67.0028C67.0252 19.8964 66.9359 19.104 66.735 18.4567C66.5564 17.8094 66.2886 17.2849 65.9315 16.8831C65.5743 16.4814 65.1503 16.1912 64.6592 16.0126C64.1682 15.8117 63.6436 15.7113 63.0856 15.7113ZM73.729 7.80994H77.3114V11.928H73.729V7.80994ZM77.3114 18.3228V28.3334C77.3114 28.7352 77.3672 29.003 77.4788 29.1369C77.6127 29.2485 77.8806 29.3267 78.2823 29.3713L79.5881 29.5052V30.6436H71.4523V29.5052L72.7581 29.3713C73.1598 29.3267 73.4165 29.2485 73.5281 29.1369C73.662 29.003 73.729 28.7352 73.729 28.3334V16.5148C73.729 16.1354 73.6732 15.8899 73.5616 15.7783C73.45 15.6443 73.1822 15.5551 72.7581 15.5104L71.4523 15.3765V14.2382H77.3449L77.3114 18.3228ZM83.121 25.4876C83.2326 26.5366 83.6121 27.4294 84.2594 28.166C84.929 28.8803 85.9222 29.2374 87.2391 29.2374C88.4221 29.2374 89.3372 29.0142 89.9845 28.5678C90.6318 28.099 90.9554 27.4741 90.9554 26.6929C90.9554 26.2241 90.8327 25.8335 90.5872 25.5211C90.364 25.1863 90.0626 24.9072 89.6832 24.684C89.3261 24.4608 88.9131 24.2823 88.4444 24.1484C87.9757 24.0144 87.4958 23.9028 87.0048 23.8136L85.0964 23.4453C84.4937 23.3337 83.8911 23.1663 83.2884 22.9431C82.7081 22.6975 82.1836 22.3851 81.7149 22.0056C81.2461 21.6039 80.8667 21.1351 80.5765 20.5994C80.2864 20.0414 80.1413 19.383 80.1413 18.6241C80.1413 17.7982 80.331 17.0952 80.7104 16.5148C81.1122 15.9122 81.6144 15.4323 82.2171 15.0752C82.842 14.6957 83.5451 14.4167 84.3263 14.2382C85.1299 14.0596 85.9334 13.9703 86.7369 13.9703C88.4779 13.9703 89.9845 14.3944 91.2568 15.2426C92.5513 16.0684 93.3549 17.296 93.6674 18.9254H90.3193C90.297 18.479 90.1742 18.0661 89.951 17.6866C89.7501 17.2849 89.4823 16.9501 89.1475 16.6822C88.8127 16.3921 88.4109 16.1689 87.9422 16.0126C87.4958 15.8564 87.0048 15.7783 86.4691 15.7783C86.1566 15.7783 85.7995 15.8117 85.3977 15.8787C85.0183 15.9233 84.65 16.0238 84.2928 16.18C83.9357 16.3363 83.6344 16.5595 83.3889 16.8496C83.1434 17.1175 83.0206 17.4634 83.0206 17.8875C83.0206 18.6241 83.2996 19.2044 83.8576 19.6285C84.4156 20.0303 85.208 20.3316 86.2347 20.5325L88.1431 20.9008C88.902 21.057 89.6274 21.2467 90.3193 21.4699C91.0336 21.6931 91.6585 22.0056 92.1942 22.4074C92.7299 22.7868 93.154 23.2667 93.4665 23.847C93.779 24.4274 93.9352 25.1416 93.9352 25.9898C93.9352 26.9049 93.7455 27.6861 93.366 28.3334C92.9866 28.9807 92.4732 29.5052 91.8259 29.907C91.1786 30.3088 90.4309 30.5989 89.5827 30.7775C88.7346 30.956 87.8418 31.0453 86.9043 31.0453C85.9445 31.0453 85.0406 30.9226 84.1924 30.677C83.3666 30.4315 82.63 30.0744 81.9827 29.6057C81.3577 29.1369 80.8444 28.5566 80.4426 27.8647C80.0632 27.1728 79.84 26.3804 79.773 25.4876H83.121ZM100.365 16.9836H100.398C100.867 16.0908 101.492 15.3653 102.273 14.8073C103.077 14.2493 104.081 13.9703 105.287 13.9703C106.604 13.9703 107.597 14.294 108.266 14.9413C108.958 15.5662 109.438 16.314 109.706 17.1844C110.152 16.2247 110.811 15.4546 111.681 14.8743C112.574 14.2716 113.634 13.9703 114.862 13.9703C115.844 13.9703 116.636 14.1489 117.239 14.506C117.864 14.8408 118.344 15.2872 118.679 15.8452C119.014 16.4032 119.237 17.0394 119.348 17.7536C119.46 18.4455 119.516 19.1486 119.516 19.8629V28.3334C119.516 28.7352 119.572 29.003 119.683 29.1369C119.817 29.2485 120.085 29.3267 120.487 29.3713L121.792 29.5052V30.6436H113.657V29.5052L114.962 29.3713C115.364 29.3267 115.621 29.2485 115.732 29.1369C115.866 29.003 115.933 28.7352 115.933 28.3334V21.0682C115.933 19.3049 115.744 18.0549 115.364 17.3184C114.985 16.5595 114.304 16.18 113.322 16.18C112.161 16.18 111.313 16.6153 110.777 17.4858C110.242 18.3563 109.974 19.4611 109.974 20.8003V28.3334C109.974 28.7352 110.03 29.003 110.141 29.1369C110.275 29.2485 110.543 29.3267 110.945 29.3713L112.251 29.5052V30.6436H104.115V29.5052L105.421 29.3713C105.822 29.3267 106.079 29.2485 106.191 29.1369C106.325 29.003 106.391 28.7352 106.391 28.3334V21.0682C106.391 19.3049 106.191 18.0549 105.789 17.3184C105.409 16.5595 104.729 16.18 103.747 16.18C102.608 16.18 101.76 16.6153 101.202 17.4858C100.666 18.3563 100.398 19.4611 100.398 20.8003V28.3334C100.398 28.7352 100.454 29.003 100.566 29.1369C100.7 29.2485 100.968 29.3267 101.369 29.3713L102.675 29.5052V30.6436H94.5394V29.5052L95.8451 29.3713C96.2469 29.3267 96.5036 29.2485 96.6152 29.1369C96.7491 29.003 96.8161 28.7352 96.8161 28.3334V16.5148C96.8161 16.1354 96.7603 15.8899 96.6487 15.7783C96.5371 15.6443 96.2692 15.5551 95.8451 15.5104L94.5394 15.3765V14.2382H100.365V16.9836ZM124.037 7.80994H127.62V11.928H124.037V7.80994ZM127.62 18.3228V28.3334C127.62 28.7352 127.675 29.003 127.787 29.1369C127.921 29.2485 128.189 29.3267 128.591 29.3713L129.896 29.5052V30.6436H121.761V29.5052L123.066 29.3713C123.468 29.3267 123.725 29.2485 123.836 29.1369C123.97 29.003 124.037 28.7352 124.037 28.3334V16.5148C124.037 16.1354 123.981 15.8899 123.87 15.7783C123.758 15.6443 123.49 15.5551 123.066 15.5104L121.761 15.3765V14.2382H127.653L127.62 18.3228ZM130.115 22.5078C130.115 21.2132 130.304 20.0414 130.684 18.9924C131.086 17.921 131.644 17.017 132.358 16.2805C133.072 15.5439 133.92 14.9747 134.902 14.573C135.884 14.1712 136.967 13.9703 138.15 13.9703C138.998 13.9703 139.824 14.0819 140.628 14.3051C141.453 14.506 142.201 14.8408 142.871 15.3095C143.54 15.7559 144.109 16.3363 144.578 17.0505C145.047 17.7648 145.371 18.6129 145.549 19.595H142.067C142.045 18.8808 141.911 18.2781 141.665 17.7871C141.42 17.296 141.107 16.9054 140.728 16.6153C140.371 16.3028 139.98 16.0907 139.556 15.9791C139.132 15.8452 138.719 15.7783 138.317 15.7783C136.889 15.7783 135.806 16.3921 135.07 17.6197C134.356 18.825 133.998 20.4544 133.998 22.5078C133.998 24.5613 134.356 26.2018 135.07 27.4294C135.784 28.6347 136.878 29.2374 138.351 29.2374C138.753 29.2374 139.166 29.1816 139.59 29.07C140.014 28.9361 140.404 28.724 140.761 28.4338C141.119 28.1214 141.42 27.7196 141.665 27.2286C141.911 26.7375 142.045 26.1349 142.067 25.4206H145.549C145.371 26.4027 145.047 27.2509 144.578 27.9651C144.109 28.6794 143.54 29.2709 142.871 29.7396C142.201 30.186 141.453 30.5096 140.628 30.7105C139.824 30.9337 138.998 31.0453 138.15 31.0453C136.967 31.0453 135.884 30.8444 134.902 30.4427C133.92 30.0409 133.072 29.4717 132.358 28.7352C131.644 27.9986 131.086 27.1058 130.684 26.0567C130.304 25.0077 130.115 23.8247 130.115 22.5078Z" fill="#393939" style="fill:#393939;fill:color(display-p3 0.2232 0.2232 0.2232);fill-opacity:1;"/>
<g clip-path="url(#clip0_899_279)">
<path d="M12.586 0L12.1548 6.84508L0 22.9996L12.586 0Z" fill="url(#paint0_linear_899_279)" style=""/>
<path d="M12.5864 0L22.716 4.51556L21.4227 18.9505L12.1553 6.84508L12.5864 0Z" fill="url(#paint1_linear_899_279)" style=""/>
<path d="M22.7153 4.51562L25.9997 24.4409L21.4219 18.9506L22.7153 4.51562Z" fill="url(#paint2_linear_899_279)" style=""/>
<path d="M26 24.4407L20.6592 37.2434L20.6729 36.9143L9.05762 37.218L21.4219 18.9504L26 24.4407Z" fill="url(#paint3_linear_899_279)" style=""/>
<path d="M12.1548 6.84521L21.4222 18.9507L9.05741 37.2179L0 22.9997L12.1548 6.84521Z" fill="url(#paint4_linear_899_279)" style=""/>
</g>
<defs>
<linearGradient id="paint0_linear_899_279" x1="6.29298" y1="22.9996" x2="-3.52482" y2="2.6618" gradientUnits="userSpaceOnUse">
<stop stop-color="#D0A0B7" style="stop-color:#D0A0B7;stop-color:color(display-p3 0.8173 0.6293 0.7161);stop-opacity:1;"/>
<stop offset="1" stop-color="#6A525D" style="stop-color:#6A525D;stop-color:color(display-p3 0.4173 0.3213 0.3656);stop-opacity:1;"/>
</linearGradient>
<linearGradient id="paint1_linear_899_279" x1="17.4357" y1="18.9505" x2="9.43818" y2="2.07917" gradientUnits="userSpaceOnUse">
<stop stop-color="#D0A0B7" style="stop-color:#D0A0B7;stop-color:color(display-p3 0.8173 0.6293 0.7161);stop-opacity:1;"/>
<stop offset="1" stop-color="#6A525D" style="stop-color:#6A525D;stop-color:color(display-p3 0.4173 0.3213 0.3656);stop-opacity:1;"/>
</linearGradient>
<linearGradient id="paint2_linear_899_279" x1="23.7108" y1="24.4409" x2="12.9532" y2="15.0849" gradientUnits="userSpaceOnUse">
<stop stop-color="#D0A0B7" style="stop-color:#D0A0B7;stop-color:color(display-p3 0.8173 0.6293 0.7161);stop-opacity:1;"/>
<stop offset="1" stop-color="#6A525D" style="stop-color:#6A525D;stop-color:color(display-p3 0.4173 0.3213 0.3656);stop-opacity:1;"/>
</linearGradient>
<linearGradient id="paint3_linear_899_279" x1="15.2399" y1="37.2179" x2="8.49408" y2="19.933" gradientUnits="userSpaceOnUse">
<stop stop-color="#8D6477" style="stop-color:#8D6477;stop-color:color(display-p3 0.5545 0.3923 0.4671);stop-opacity:1;"/>
<stop offset="0.600962" stop-color="#6A525D" style="stop-color:#6A525D;stop-color:color(display-p3 0.4173 0.3213 0.3656);stop-opacity:1;"/>
</linearGradient>
<linearGradient id="paint4_linear_899_279" x1="10.7111" y1="37.2179" x2="-0.166335" y2="8.17558" gradientUnits="userSpaceOnUse">
<stop stop-color="#D0A0B7" style="stop-color:#D0A0B7;stop-color:color(display-p3 0.8173 0.6293 0.7161);stop-opacity:1;"/>
<stop offset="1" stop-color="#6A525D" style="stop-color:#6A525D;stop-color:color(display-p3 0.4173 0.3213 0.3656);stop-opacity:1;"/>
</linearGradient>
<clipPath id="clip0_899_279">
<rect width="26" height="37.2432" fill="white" style="fill:white;fill-opacity:1;"/>
</clipPath>
</defs>
</svg>
